<?xml version="1.0" standalone="no"?>
<!DOCTYPE svg PUBLIC "-//W3C//DTD SVG 20010904//EN"
 "http://www.w3.org/TR/2001/REC-SVG-20010904/DTD/svg10.dtd">
<svg version="1.0" xmlns="http://www.w3.org/2000/svg"
 width="126.000000pt" height="71.000000pt" viewBox="0 0 126.000000 71.000000"
 preserveAspectRatio="xMidYMid meet">

<g transform="translate(0.000000,71.000000) scale(0.100000,-0.100000)"
fill="#000000" stroke="none">
<path d="M640 684 c-6 -14 -10 -28 -10 -31 0 -3 -12 -22 -26 -41 -22 -28 -24
-36 -13 -43 54 -34 129 79 83 125 -21 21 -23 20 -34 -10z"/>
<path d="M354 665 c-8 -19 3 -35 26 -35 19 0 30 17 23 38 -6 17 -42 15 -49 -3z"/>
<path d="M816 604 c-12 -33 36 -81 64 -64 11 7 7 16 -16 43 -33 40 -39 43 -48
21z"/>
<path d="M146 601 c-8 -13 31 -59 64 -76 30 -16 130 -21 130 -7 0 4 -26 13
-58 20 -36 7 -71 23 -94 42 -20 17 -39 26 -42 21z"/>
<path d="M470 543 c-30 -11 -60 -47 -60 -73 0 -25 -4 -27 -102 -49 -408 -91
-396 -296 22 -387 122 -27 477 -27 600 -1 201 44 320 116 320 196 0 49 -27 83
-95 122 l-52 29 19 40 c27 54 21 94 -14 98 -22 3 -30 -4 -53 -47 -15 -27 -33
-52 -39 -54 -6 -3 -54 4 -106 14 -52 10 -107 19 -122 19 -25 0 -28 4 -28 35 0
29 -4 36 -27 41 -35 9 -58 -7 -58 -41 -1 -26 -2 -27 -65 -29 l-64 -1 -9 35
c-14 55 -29 67 -67 53z m443 -143 c29 -7 45 -16 40 -21 -5 -5 -23 -5 -43 1
-18 5 -90 14 -159 20 -209 17 -213 18 -46 15 88 -2 182 -9 208 -15z m-493 1
c0 -5 -17 -12 -37 -15 -119 -21 -233 -83 -233 -126 0 -66 244 -130 493 -130
98 0 272 23 343 44 115 35 152 89 94 137 -19 16 -27 29 -21 33 24 15 91 -48
91 -86 0 -31 -60 -83 -123 -107 -106 -39 -241 -54 -441 -48 -304 9 -466 63
-466 157 0 57 55 94 194 130 80 21 106 24 106 11z m450 -51 c13 -9 13 -11 0
-20 -8 -5 -24 -10 -35 -10 -11 0 -27 5 -35 10 -13 9 -13 11 0 20 8 5 24 10 35
10 11 0 27 -5 35 -10z m-137 -31 c35 -40 35 -53 0 -44 -37 8 -67 39 -60 59 10
24 30 19 60 -15z m-368 1 c11 -18 -4 -47 -31 -58 -35 -17 -99 -15 -114 3 -14
17 -5 35 18 35 9 1 28 7 42 15 29 17 76 19 85 5z m95 -45 c36 -19 39 -35 6
-35 -37 0 -56 10 -56 31 0 23 12 24 50 4z m485 -15 c36 -14 29 -42 -15 -57
-47 -16 -102 -16 -125 0 -49 37 69 84 140 57z m-303 -10 c21 -6 42 -18 47 -28
33 -59 -106 -85 -171 -32 -21 17 -22 20 -7 35 14 14 43 25 89 34 3 0 22 -4 42
-9z"/>
</g>
</svg>
