<?xml version="1.0" standalone="no"?>
<!DOCTYPE svg PUBLIC "-//W3C//DTD SVG 20010904//EN"
 "http://www.w3.org/TR/2001/REC-SVG-20010904/DTD/svg10.dtd">
<svg version="1.0" xmlns="http://www.w3.org/2000/svg"
 width="184.000000pt" height="81.000000pt" viewBox="0 0 184.000000 81.000000"
 preserveAspectRatio="xMidYMid meet">

<g transform="translate(0.000000,81.000000) scale(0.100000,-0.100000)"
fill="#000000" stroke="none">
<path d="M792 781 c-29 -11 -68 -29 -86 -40 -52 -33 -125 -117 -152 -176 -21
-45 -30 -55 -50 -55 -24 0 -24 0 -24 -110 l0 -110 28 0 c23 0 31 -9 56 -60 50
-104 157 -185 278 -211 171 -37 367 62 440 222 18 38 28 49 45 49 22 0 23 3
23 110 0 101 -2 110 -19 110 -13 0 -28 19 -49 63 -39 79 -121 158 -199 195
-79 36 -213 42 -291 13z m200 -2 c75 -16 131 -45 187 -95 47 -42 117 -155 104
-168 -16 -15 -33 -2 -61 47 -36 63 -98 122 -161 151 -66 30 -216 30 -282 0
-63 -29 -125 -88 -161 -151 -28 -49 -45 -62 -61 -47 -13 13 57 126 104 168 55
49 102 74 174 92 65 16 93 16 157 3z m15 -84 c62 -18 124 -63 163 -117 43 -59
40 -68 -25 -68 -54 0 -55 1 -49 25 8 31 -10 55 -42 55 -27 0 -48 -32 -39 -60
6 -19 1 -20 -184 -20 -214 0 -211 -1 -162 67 79 109 212 156 338 118z m-392
-439 c29 -61 84 -114 153 -148 59 -29 76 -33 152 -33 71 0 94 4 140 26 74 35
116 72 152 136 20 35 36 53 49 53 24 0 24 -11 -2 -62 -30 -60 -111 -135 -177
-166 -50 -24 -69 -27 -162 -27 -93 0 -112 3 -161 26 -72 34 -133 89 -170 154
-34 59 -36 75 -9 75 12 0 25 -12 35 -34z m585 28 c0 -3 -14 -25 -30 -49 -30
-43 -88 -89 -141 -112 -119 -51 -282 -1 -358 111 -17 24 -31 47 -31 50 0 3
126 6 280 6 154 0 280 -3 280 -6z"/>
<path d="M942 634 c4 -21 22 -23 26 -1 2 10 -3 17 -13 17 -10 0 -15 -6 -13
-16z"/>
<path d="M774 595 c-8 -21 2 -45 19 -45 21 0 38 25 31 44 -8 20 -43 21 -50 1z"/>
<path d="M777 264 c-13 -14 -7 -43 12 -53 23 -13 45 8 39 36 -3 18 -38 30 -51
17z"/>
<path d="M1047 234 c-8 -8 1 -24 14 -24 5 0 9 7 9 15 0 15 -12 20 -23 9z"/>
<path d="M932 221 c-8 -4 -12 -19 -10 -32 2 -18 9 -24 28 -24 19 0 26 6 28 24
3 20 -11 41 -28 41 -3 0 -11 -4 -18 -9z"/>
<path d="M160 658 c36 -32 110 -76 115 -69 3 6 -18 23 -47 38 -55 29 -76 39
-68 31z"/>
<path d="M1625 634 c-22 -13 -44 -25 -49 -27 -5 -2 -7 -8 -5 -14 2 -7 27 5 59
28 60 43 58 51 -5 13z"/>
<path d="M156 506 c45 -22 84 -30 84 -18 0 5 -13 12 -29 15 -16 3 -42 9 -57
12 l-29 5 31 -14z"/>
<path d="M1650 508 c-44 -12 -68 -34 -26 -24 39 9 95 34 76 34 -8 0 -31 -4
-50 -10z"/>
<path d="M345 428 c16 -76 16 -106 2 -156 l-16 -52 85 0 86 0 -31 26 c-31 25
-31 27 -31 120 l0 94 -51 0 -51 0 7 -32z"/>
<path d="M1380 366 l0 -95 -32 -25 -33 -26 87 0 86 0 -18 60 c-16 54 -17 65
-4 113 7 28 14 55 14 60 0 4 -22 7 -50 7 l-50 0 0 -94z"/>
<path d="M70 350 c-17 -5 6 -8 68 -9 55 -1 92 3 92 9 0 12 -123 12 -160 0z"/>
<path d="M1610 350 c0 -6 37 -10 93 -9 61 1 84 4 67 9 -37 12 -160 12 -160 0z"/>
<path d="M155 190 c-27 -10 -45 -19 -38 -19 24 -2 113 21 119 30 8 14 -26 9
-81 -11z"/>
<path d="M1604 201 c6 -9 95 -32 119 -30 17 1 -84 37 -106 38 -10 1 -16 -3
-13 -8z"/>
<path d="M212 74 c-65 -43 -68 -55 -4 -19 54 32 68 43 61 50 -3 2 -28 -11 -57
-31z"/>
<path d="M1571 101 c2 -6 29 -25 59 -42 45 -25 50 -26 28 -7 -39 33 -91 63
-87 49z"/>
</g>
</svg>
