<?xml version="1.0" standalone="no"?>
<!DOCTYPE svg PUBLIC "-//W3C//DTD SVG 20010904//EN"
 "http://www.w3.org/TR/2001/REC-SVG-20010904/DTD/svg10.dtd">
<svg version="1.0" xmlns="http://www.w3.org/2000/svg"
 width="142.000000pt" height="68.000000pt" viewBox="0 0 142.000000 68.000000"
 preserveAspectRatio="xMidYMid meet">

<g transform="translate(0.000000,68.000000) scale(0.100000,-0.100000)"
fill="#000000" stroke="none">
<path d="M690 639 c-16 -30 -29 -39 -59 -39 l-24 0 22 -24 c17 -18 22 -33 19
-55 -5 -36 -6 -36 31 -16 25 12 31 12 47 0 28 -21 37 -18 31 13 -4 20 1 34 21
55 l26 27 -25 0 c-28 0 -52 16 -67 44 -9 18 -10 18 -22 -5z"/>
<path d="M465 591 c-4 -13 -15 -21 -28 -21 -16 0 -18 -3 -9 -12 7 -7 12 -22
12 -33 0 -18 6 -21 35 -21 29 1 35 5 35 24 0 12 5 22 10 22 6 0 10 5 10 10 0
6 -6 10 -14 10 -8 0 -21 9 -29 21 l-15 21 -7 -21z"/>
<path d="M916 585 c-3 -8 -12 -15 -21 -15 -17 0 -20 -16 -5 -25 6 -3 10 -15
10 -26 0 -16 3 -18 17 -10 11 6 24 6 36 -1 15 -8 18 -6 15 10 -2 10 3 26 11
35 12 15 11 17 -8 17 -12 0 -24 7 -27 15 -4 8 -10 15 -14 15 -4 0 -10 -7 -14
-15z"/>
<path d="M20 533 c0 -10 38 -13 155 -13 205 0 205 18 0 22 -119 2 -155 0 -155
-9z"/>
<path d="M1085 530 c4 -6 67 -10 155 -10 88 0 151 4 155 10 4 7 -50 10 -155
10 -105 0 -159 -3 -155 -10z"/>
<path d="M26 394 c-24 -23 -24 -345 0 -368 22 -22 340 -24 370 -2 17 13 19 28
19 184 0 128 -3 173 -14 185 -20 25 -351 25 -375 1z m234 -94 c0 -11 -7 -23
-15 -26 -8 -4 -15 -10 -15 -15 0 -5 7 -9 15 -9 8 0 15 -9 15 -20 0 -11 -7 -20
-14 -20 -11 0 -16 -15 -18 -52 -3 -45 -6 -53 -23 -53 -17 0 -20 8 -23 53 -2
28 -7 52 -13 52 -5 0 -9 9 -9 20 0 11 5 20 10 20 6 0 10 9 10 19 0 22 35 51
62 51 11 0 18 -8 18 -20z"/>
<path d="M524 396 c-17 -13 -19 -30 -22 -161 -5 -236 -15 -225 207 -225 129 0
172 3 187 14 17 13 19 28 19 186 0 158 -2 173 -19 186 -28 20 -344 20 -372 0z
m285 -112 c1 -1 -4 -25 -14 -53 -25 -77 -68 -107 -145 -101 -33 2 -52 20 -22
20 26 0 27 3 6 35 -8 13 -17 40 -20 59 -5 40 7 46 40 21 25 -19 56 -19 56 0 0
21 31 34 65 28 16 -3 32 -7 34 -9z"/>
<path d="M1019 393 c-11 -12 -14 -57 -14 -185 0 -156 2 -171 19 -184 30 -22
348 -20 370 2 24 23 24 345 0 368 -24 24 -355 24 -375 -1z m265 -89 c9 -8 16
-19 16 -24 0 -16 -33 -41 -47 -36 -14 6 -73 -22 -73 -34 0 -12 59 -40 73 -34
14 5 47 -20 47 -36 0 -11 -29 -40 -40 -40 -10 0 -40 29 -40 39 0 13 -58 41
-73 35 -14 -5 -47 20 -47 36 0 16 33 41 47 36 15 -6 73 22 73 35 0 10 30 39
40 39 5 0 16 -7 24 -16z"/>
</g>
</svg>
