<?xml version="1.0" standalone="no"?>
<!DOCTYPE svg PUBLIC "-//W3C//DTD SVG 20010904//EN"
 "http://www.w3.org/TR/2001/REC-SVG-20010904/DTD/svg10.dtd">
<svg version="1.0" xmlns="http://www.w3.org/2000/svg"
 width="153.000000pt" height="57.000000pt" viewBox="0 0 153.000000 57.000000"
 preserveAspectRatio="xMidYMid meet">

<g transform="translate(0.000000,57.000000) scale(0.100000,-0.100000)"
fill="#000000" stroke="none">
<path d="M560 463 c-66 -22 -130 -51 -157 -71 -17 -13 -60 -32 -94 -42 -73
-23 -132 -61 -159 -105 -35 -56 -22 -95 32 -95 31 0 48 24 29 43 -16 16 -14
69 4 94 25 36 80 47 165 34 40 -6 93 -20 119 -31 25 -10 89 -35 141 -55 52
-20 115 -44 140 -54 87 -36 203 -63 250 -59 62 6 149 47 202 96 24 22 57 47
75 55 40 21 93 85 93 114 0 44 -54 70 -80 38 -11 -13 -10 -22 5 -49 17 -32 18
-36 2 -60 -39 -60 -141 -49 -342 34 -223 93 -303 120 -360 119 -27 0 -57 -3
-65 -6z m140 -53 c30 -10 123 -48 205 -84 104 -45 174 -69 230 -78 l80 -14
-26 -26 c-28 -28 -84 -48 -134 -48 -57 0 -161 31 -320 95 -88 36 -191 72 -230
81 -106 24 -102 21 -73 51 52 51 152 60 268 23z"/>
</g>
</svg>
